
<svg xmlns="http://www.w3.org/2000/svg" xmlns:xlink="http://www.w3.org/1999/xlink" id="Layer_1" x="0px" y="0px" viewBox="0 0 50 50" style="enable-background:new 0 0 50 50;" xml:space="preserve"><style type="text/css">	.st0{clip-path:url(#SVGID_00000165923015434285760210000002819772023352234131_);}</style><g>	<path d="M25.07,0.93c1.34,0.68,1.89,1.94,2.34,3.25c0.5,1.45,0.72,2.95,0.73,4.48c0.03,3.05,0.04,6.11,0.03,9.16  c0,0.35,0.11,0.56,0.39,0.77c1.92,1.4,3.83,2.82,5.84,4.3c0-0.71,0-1.33,0-1.98c1.09,0,2.1,0,3.16,0c0.01,0.17,0.03,0.34,0.03,0.5  c0,1.06,0.02,2.13-0.01,3.19c-0.01,0.45,0.12,0.74,0.5,1.01c2.26,1.63,4.49,3.3,6.74,4.94c0.28,0.21,0.4,0.42,0.39,0.78  c-0.02,1.13-0.01,2.25-0.01,3.45c-5.79-2.38-11.52-4.74-17.29-7.12c-0.07,1.44-0.14,2.79-0.2,4.15c-0.16,3.72-0.31,7.45-0.48,11.17  c-0.02,0.39,0.07,0.61,0.44,0.81c1.51,0.8,2.99,1.64,4.48,2.46c0.25,0.14,0.35,0.29,0.34,0.58c-0.02,0.72-0.01,1.44-0.01,2.21  c-1.17-0.2-2.31-0.4-3.44-0.6c-1.32-0.23-2.64-0.55-3.98-0.67c-0.82-0.07-1.67,0.15-2.5,0.28c-1.88,0.31-3.76,0.65-5.69,0.99  c0-0.84-0.01-1.65,0.02-2.46c0-0.12,0.2-0.25,0.34-0.33c1.51-0.85,3.03-1.69,4.56-2.52c0.25-0.14,0.36-0.27,0.35-0.57  c-0.23-5.08-0.44-10.17-0.66-15.25c0-0.06-0.02-0.11-0.04-0.23c-5.75,2.37-11.46,4.72-17.27,7.11c0-0.49,0-0.92,0-1.34  c0-0.72,0.02-1.44-0.01-2.16c-0.01-0.32,0.11-0.51,0.36-0.69c2.29-1.67,4.56-3.36,6.85-5.03c0.3-0.22,0.42-0.44,0.41-0.81  c-0.02-1.27-0.01-2.53-0.01-3.83c1.07,0,2.09,0,3.18,0c0,0.64,0,1.26,0,1.96c0.2-0.14,0.33-0.22,0.45-0.31  c1.81-1.34,3.62-2.68,5.45-4.01c0.26-0.19,0.35-0.38,0.35-0.69c0-3.08-0.01-6.17,0.04-9.25c0.03-1.86,0.34-3.67,1.1-5.39  c0.43-0.96,0.98-1.81,1.97-2.29C24.57,0.93,24.82,0.93,25.07,0.93z"></path></g><g>	<defs>		<rect id="SVGID_1_" width="50" height="50"></rect>	</defs>	<clipPath id="SVGID_00000158720791396898309080000007474136409331978888_">		<use xlink:href="#SVGID_1_" style="overflow:visible;"></use>	</clipPath>	<g style="clip-path:url(#SVGID_00000158720791396898309080000007474136409331978888_);">		<g>		</g>	</g></g></svg>